<mxfile host="Electron" modified="2024-05-30T16:23:43.145Z" agent="Mozilla/5.0 (Windows NT 10.0; Win64; x64) AppleWebKit/537.36 (KHTML, like Gecko) draw.io/24.4.8 Chrome/124.0.6367.207 Electron/30.0.6 Safari/537.36" etag="NQfGoohhCU-khmeeB-nF" version="24.4.8" type="device">
  <diagram name="Page-1" id="F44n_vsHZMKWY91Ir1mV">
    <mxGraphModel dx="1022" dy="592" grid="0" gridSize="10" guides="1" tooltips="1" connect="1" arrows="1" fold="1" page="1" pageScale="1" pageWidth="850" pageHeight="1100" math="0" shadow="0">
      <root>
        <mxCell id="0" />
        <mxCell id="1" parent="0" />
        <mxCell id="0ayQ4EvFOmIjWNBUdSra-10" value="" style="rounded=0;whiteSpace=wrap;html=1;" parent="1" vertex="1">
          <mxGeometry width="850" height="439" as="geometry" />
        </mxCell>
        <mxCell id="0ayQ4EvFOmIjWNBUdSra-1" value="" style="verticalLabelPosition=bottom;shadow=0;dashed=0;align=center;html=1;verticalAlign=top;strokeWidth=1;shape=mxgraph.mockup.graphics.simpleIcon;strokeColor=#999999;" parent="1" vertex="1">
          <mxGeometry x="40" y="40" width="250" height="150" as="geometry" />
        </mxCell>
        <mxCell id="0ayQ4EvFOmIjWNBUdSra-2" value="&lt;p style=&quot;line-height: 120%; font-size: 15px;&quot;&gt;HOME&lt;/p&gt;" style="text;html=1;align=center;verticalAlign=middle;resizable=0;points=[];autosize=1;strokeColor=none;fillColor=none;fontStyle=0;fontSize=15;" parent="1" vertex="1">
          <mxGeometry x="380" y="219" width="63" height="60" as="geometry" />
        </mxCell>
        <mxCell id="0ayQ4EvFOmIjWNBUdSra-4" value="RECIPES" style="text;html=1;align=center;verticalAlign=middle;resizable=0;points=[];autosize=1;strokeColor=none;fillColor=none;fontStyle=0;fontSize=15;" parent="1" vertex="1">
          <mxGeometry x="369.5" y="279" width="84" height="30" as="geometry" />
        </mxCell>
        <mxCell id="0ayQ4EvFOmIjWNBUdSra-7" value="CONTACT" style="text;html=1;align=center;verticalAlign=middle;resizable=0;points=[];autosize=1;strokeColor=none;fillColor=none;fontStyle=0;fontSize=15;" parent="1" vertex="1">
          <mxGeometry x="367.5" y="377" width="89" height="30" as="geometry" />
        </mxCell>
        <mxCell id="0ayQ4EvFOmIjWNBUdSra-9" value="RANDOMIZER" style="text;html=1;align=center;verticalAlign=middle;resizable=0;points=[];autosize=1;strokeColor=none;fillColor=none;fontStyle=0;fontSize=15;" parent="1" vertex="1">
          <mxGeometry x="352" y="326" width="119" height="30" as="geometry" />
        </mxCell>
        <mxCell id="0ayQ4EvFOmIjWNBUdSra-12" value="" style="verticalLabelPosition=bottom;shadow=0;dashed=0;align=center;html=1;verticalAlign=top;strokeWidth=1;shape=mxgraph.mockup.graphics.simpleIcon;strokeColor=#999999;" parent="1" vertex="1">
          <mxGeometry y="488" width="850" height="325" as="geometry" />
        </mxCell>
        <mxCell id="0ayQ4EvFOmIjWNBUdSra-14" value="" style="rounded=0;whiteSpace=wrap;html=1;" parent="1" vertex="1">
          <mxGeometry y="1033" width="850" height="1188" as="geometry" />
        </mxCell>
        <mxCell id="0ayQ4EvFOmIjWNBUdSra-16" value="Look up Recipes" style="strokeWidth=1;shadow=0;dashed=0;align=center;html=1;shape=mxgraph.mockup.buttons.button;strokeColor=#666666;fontColor=#ffffff;mainText=;buttonStyle=round;fontSize=17;fontStyle=1;fillColor=#008cff;whiteSpace=wrap;" parent="1" vertex="1">
          <mxGeometry x="343.75" y="936" width="163.5" height="45" as="geometry" />
        </mxCell>
        <mxCell id="0ayQ4EvFOmIjWNBUdSra-18" value="&lt;span style=&quot;font-size: 32px;&quot;&gt;Home Chef&lt;/span&gt;" style="text;strokeColor=none;fillColor=none;html=1;fontSize=24;fontStyle=1;verticalAlign=middle;align=center;fontFamily=Verdana;" parent="1" vertex="1">
          <mxGeometry x="282" y="855" width="287" height="41" as="geometry" />
        </mxCell>
        <mxCell id="0ayQ4EvFOmIjWNBUdSra-19" value="Haven" style="text;strokeColor=none;fillColor=none;html=1;fontSize=24;fontStyle=1;verticalAlign=middle;align=center;" parent="1" vertex="1">
          <mxGeometry x="378" y="896" width="100" height="40" as="geometry" />
        </mxCell>
        <mxCell id="0ayQ4EvFOmIjWNBUdSra-20" value="" style="verticalLabelPosition=bottom;shadow=0;dashed=0;align=center;html=1;verticalAlign=top;strokeWidth=1;shape=mxgraph.mockup.graphics.simpleIcon;strokeColor=#999999;" parent="1" vertex="1">
          <mxGeometry x="309" y="1083" width="233" height="277" as="geometry" />
        </mxCell>
        <mxCell id="0ayQ4EvFOmIjWNBUdSra-21" value="" style="verticalLabelPosition=bottom;shadow=0;dashed=0;align=center;html=1;verticalAlign=top;strokeWidth=1;shape=mxgraph.mockup.graphics.simpleIcon;strokeColor=#999999;" parent="1" vertex="1">
          <mxGeometry x="307.75" y="1454" width="234" height="290" as="geometry" />
        </mxCell>
        <mxCell id="0ayQ4EvFOmIjWNBUdSra-22" value="" style="verticalLabelPosition=bottom;shadow=0;dashed=0;align=center;html=1;verticalAlign=top;strokeWidth=1;shape=mxgraph.mockup.graphics.simpleIcon;strokeColor=#999999;" parent="1" vertex="1">
          <mxGeometry x="307" y="1856" width="235.5" height="297" as="geometry" />
        </mxCell>
        <mxCell id="0ayQ4EvFOmIjWNBUdSra-23" value="" style="rounded=0;whiteSpace=wrap;html=1;" parent="1" vertex="1">
          <mxGeometry x="-0.25" y="2262" width="850" height="55" as="geometry" />
        </mxCell>
        <mxCell id="0ayQ4EvFOmIjWNBUdSra-24" value="All rights reserved" style="text;html=1;align=center;verticalAlign=middle;whiteSpace=wrap;rounded=0;" parent="1" vertex="1">
          <mxGeometry x="337" y="2274.5" width="160" height="30" as="geometry" />
        </mxCell>
        <mxCell id="X6aI32VlL0xJHHfEi2Z4-1" value="" style="endArrow=none;html=1;rounded=0;entryX=1;entryY=0.5;entryDx=0;entryDy=0;" edge="1" parent="1" target="0ayQ4EvFOmIjWNBUdSra-10">
          <mxGeometry width="50" height="50" relative="1" as="geometry">
            <mxPoint y="218.2281368821292" as="sourcePoint" />
            <mxPoint x="164" y="218" as="targetPoint" />
          </mxGeometry>
        </mxCell>
        <mxCell id="X6aI32VlL0xJHHfEi2Z4-2" value="" style="endArrow=none;html=1;rounded=0;strokeWidth=6;" edge="1" parent="1">
          <mxGeometry width="50" height="50" relative="1" as="geometry">
            <mxPoint x="766" y="97.15999999999997" as="sourcePoint" />
            <mxPoint x="802" y="97" as="targetPoint" />
          </mxGeometry>
        </mxCell>
        <mxCell id="X6aI32VlL0xJHHfEi2Z4-3" value="" style="endArrow=none;html=1;rounded=0;strokeWidth=6;" edge="1" parent="1">
          <mxGeometry width="50" height="50" relative="1" as="geometry">
            <mxPoint x="766" y="109.15999999999997" as="sourcePoint" />
            <mxPoint x="802" y="109" as="targetPoint" />
          </mxGeometry>
        </mxCell>
        <mxCell id="X6aI32VlL0xJHHfEi2Z4-4" value="" style="endArrow=none;html=1;rounded=0;strokeWidth=6;" edge="1" parent="1">
          <mxGeometry width="50" height="50" relative="1" as="geometry">
            <mxPoint x="766" y="121.15999999999997" as="sourcePoint" />
            <mxPoint x="802" y="121" as="targetPoint" />
          </mxGeometry>
        </mxCell>
      </root>
    </mxGraphModel>
  </diagram>
</mxfile>
